# File created by Blade
# Date/Time:  Thu Sep 25 21:01:51 2014
# Frame Rate: 120.000 fps
#------------------------------------------------------
:FULLY-SPECIFIED
:DEGREES
1468
root 4.530410 5.814460 -7.029236 23.059518 -2.191674 -42.540184
Spine 6.770470 15.796631 12.905412
Head -34.954914 -21.279296 38.897735
LeftShoulder -6.328774 19.995878 17.607022
LeftArm 13.749834 50.180866 -74.937868
LeftForeArm 45.920020 0.000000 35.216387
LeftHand -30.258709 0.000000 115.084824
LeftHandThumb1 -26.253704 0.000000 33.147579
RightShoulder -16.740347 16.646286 -19.789294
RightArm -15.228490 -3.099574 71.150735
RightForeArm -32.691041 -0.000000 44.525445
RightHand -7.907883 -0.000000 -4.130831
RightHandThumb1 -24.326973 -0.000000 -32.862282
LeftUpLeg -119.538220 -2.602261 -31.119020
LeftLeg 123.790870 -0.000000 -0.000000
LeftFoot 80.029624 1.903242 -33.212311
LeftToeBase -11.150507 -0.000000 0.000000
RightUpLeg -29.402568 -16.169263 -28.816224
RightLeg 126.274196 -0.000000 -0.000000
RightFoot 20.332139 -19.283874 2.804923
RightToeBase 0.249406 -0.000000 -0.000000
1469
root 4.506786 5.826906 -6.976944 23.396694 -1.849775 -42.263679
Spine 6.303265 15.795748 12.802619
Head -35.174988 -21.501142 38.802434
LeftShoulder -6.227023 19.903904 17.430698
LeftArm 13.939166 50.371799 -74.590587
LeftForeArm 45.662542 -0.000000 34.576291
LeftHand -30.298305 -0.000000 115.220026
LeftHandThumb1 -26.253704 0.000000 33.147579
RightShoulder -16.646770 16.752670 -19.865396
RightArm -15.222805 -3.010113 71.183641
RightForeArm -32.982447 -0.000000 44.605673
RightHand -7.781982 0.000000 -3.915909
RightHandThumb1 -24.326973 -0.000000 -32.862282
LeftUpLeg -119.601870 -2.905015 -31.237150
LeftLeg 123.946600 -0.000000 -0.000000
LeftFoot 80.129652 2.281437 -33.054649
LeftToeBase -12.585948 -0.000000 0.000000
RightUpLeg -28.940886 -16.816091 -28.635749
RightLeg 126.237078 -0.000000 -0.000000
RightFoot 20.060273 -19.558329 2.793673
RightToeBase -0.166802 -0.000000 0.000000
1470
root 4.484294 5.838336 -6.918337 23.689707 -1.555083 -41.958890
Spine 5.880960 15.855379 12.655606
Head -35.428753 -21.688846 38.752993
LeftShoulder -6.166071 19.749139 17.224354
LeftArm 14.181397 50.676026 -74.152205
LeftForeArm 45.151308 -0.000000 33.934002
LeftHand -30.325807 -0.000000 115.460109
LeftHandThumb1 -26.253704 0.000000 33.147579
RightShoulder -16.628313 16.862235 -19.845042
RightArm -15.187070 -3.098089 71.110252
RightForeArm -33.024134 0.000000 44.705080
RightHand -7.793205 -0.000000 -4.089386
RightHandThumb1 -24.326973 -0.000000 -32.862282
LeftUpLeg -119.661149 -3.116372 -31.473500
LeftLeg 124.120612 -0.000000 -0.000000
LeftFoot 79.867113 1.563421 -32.518447
LeftToeBase -11.406037 -0.000000 0.000000
RightUpLeg -28.486841 -17.415787 -28.496018
RightLeg 126.176414 -0.000000 -0.000000
RightFoot 19.620785 -20.030171 3.377957
RightToeBase 0.706566 -0.000000 -0.000000
1471
root 4.450088 5.846709 -6.856486 23.906067 -1.254112 -41.674226
Spine 5.523304 15.896419 12.550774
Head -35.627421 -21.869409 38.673949
LeftShoulder -6.036760 19.580586 17.068985
LeftArm 14.207648 50.820679 -73.907100
LeftForeArm 44.827851 -0.000000 33.408465
LeftHand -30.421325 0.000000 115.511514
LeftHandThumb1 -26.253704 0.000000 33.147579
RightShoulder -16.601634 16.852257 -19.863415
RightArm -15.042790 -3.215351 71.123891
RightForeArm -33.009465 -0.000000 44.794132
RightHand -7.848512 0.000000 -4.183289
RightHandThumb1 -24.326973 -0.000000 -32.862282
LeftUpLeg -119.720788 -3.369246 -31.650938
LeftLeg 124.325595 -0.000000 -0.000000
LeftFoot 79.904242 1.772246 -32.111025
LeftToeBase -11.679866 -0.000000 0.000000
RightUpLeg -27.932964 -18.164729 -28.390069
RightLeg 126.175888 -0.000000 -0.000000
RightFoot 19.504912 -20.271726 3.295388
RightToeBase 0.046882 -0.000000 -0.000000
